<svg xmlns="http://www.w3.org/2000/svg" viewBox="0 2 155 47" role="img" aria-label="AiChemy">
  <defs>
    <linearGradient id="flame" x1="0.5" y1="1" x2="0.5" y2="0">
      <stop offset="0%" stop-color="#e85d04"/>
      <stop offset="100%" stop-color="#ffd166"/>
    </linearGradient>
  </defs>

  <text
    x="0"
    y="40"
    font-family="Inter, 'Segoe UI', system-ui, -apple-system, sans-serif"
    font-size="36"
    font-weight="600"
    letter-spacing="-0.4"
    fill="#333333"
  >A</text>

  <g transform="translate(27, 4)">
    <!-- flame dot -->
    <path
      d="M7.5 0 C7.5 3.2 5.8 5.5 5.8 8.5 C5.8 11 7.2 13 7.5 14.5 C7.8 13 9.2 11 9.2 8.5 C9.2 5.5 7.5 3.2 7.5 0 Z"
      fill="url(#flame)"
    />

    <!-- test tube -->
    <path
      d="M4 15.5 H11 C11.55 15.5 12 15.95 12 16.5 V36.5 C12 40 10.1 42 7.5 42 C4.9 42 3 40 3 36.5 V16.5 C3 15.95 3.45 15.5 4 15.5 Z"
      fill="#ffffff"
      stroke="#333333"
      stroke-width="1.5"
      stroke-linejoin="round"
    />

    <!-- liquid -->
    <path
      d="M3.8 31.5 H11.2 V36.5 C11.2 39 9.7 40.4 7.5 40.4 C5.3 40.4 3.8 39 3.8 36.5 Z"
      fill="url(#flame)"
    />
  </g>

  <text
    x="41"
    y="40"
    font-family="Inter, 'Segoe UI', system-ui, -apple-system, sans-serif"
    font-size="36"
    font-weight="600"
    letter-spacing="-0.4"
    fill="#333333"
  >Chemy</text>
</svg>
